<svg xmlns="http://www.w3.org/2000/svg" width="42" height="32" fill="none" viewBox="0 0 42 32">
    <path fill="#61351A" d="M11.281 5.12l9.545 9.545 12.15-12.148L31.24.78 20.826 11.194l-7.81-7.81h6.075V.781H8.678v10.413h2.603V5.12zm29.851 19.438C35.926 19.525 28.636 16.4 20.826 16.4c-7.81 0-15.099 3.124-20.305 8.157-.347.347-.521.694-.521 1.215 0 .52.174.867.52 1.215l4.34 4.338c.347.348.694.521 1.214.521.521 0 .868-.174 1.215-.52 1.389-1.216 2.95-2.43 4.686-3.298.52-.347 1.042-.868 1.042-1.562v-5.38c2.43-.868 5.206-1.215 7.983-1.215 2.777 0 5.554.52 7.983 1.215v5.38c0 .694.348 1.215 1.042 1.562 1.735.868 3.297 1.909 4.686 3.297.347.348.694.521 1.215.521.52 0 .867-.174 1.215-.52l4.338-4.34c.348-.346.521-.694.521-1.214 0-.521-.52-.868-.868-1.215z"/>
</svg>
