<svg xmlns="http://www.w3.org/2000/svg" width="94" height="95" fill="none" viewBox="0 0 94 95">
    <ellipse cx="46.999" cy="47.173" fill="#000" fill-opacity=".5" rx="43.122" ry="43.13"/>
    <path fill="#FEBD2C" d="M62.501 45.334l-19.518-14.19c-.716-.52-1.667-.598-2.452-.194-.792.4-1.286 1.214-1.286 2.093v28.372c0 .888.494 1.698 1.286 2.099.334.169.7.253 1.07.253.481 0 .97-.153 1.382-.457l19.518-14.178c.616-.453.976-1.154.976-1.898.003-.758-.366-1.455-.976-1.9z"/>
    <path fill="#FEBD2C" d="M47 .172C21.038.172 0 21.214 0 47.18c0 25.956 21.038 46.992 47 46.992 25.955 0 46.997-21.039 46.997-46.992C94 21.214 72.955.172 47 .172zm0 86.157c-21.62 0-39.149-17.522-39.149-39.15C7.851 25.563 25.38 8.019 47 8.019c21.617 0 39.142 17.541 39.142 39.162C86.147 68.807 68.618 86.329 47 86.329z"/>
</svg>
